<svg width="1409" height="521" viewBox="0 0 1409 521" fill="none" xmlns="http://www.w3.org/2000/svg">
<mask id="mask0" mask-type="alpha" maskUnits="userSpaceOnUse" x="4" y="3" width="1401" height="513">
<path d="M895.564 11.0008C657.064 -36.9992 578.564 150.501 376.064 59.0007C248.14 1.19807 101.092 16.426 10.1326 35.4818C8.10441 35.9067 6.10415 36.3335 4.13259 36.7614L4.13257 470.491C90.0627 361.572 300.01 461.569 527.642 507.381C766.142 555.381 844.642 367.881 1047.14 459.381C1171.05 515.372 1312.91 502.839 1404.35 484.679V59.0007C1313.9 151.49 1115.82 55.3293 895.564 11.0008Z" fill="#C4C4C4"/>
<path d="M895.564 11.0008C657.064 -36.9992 578.564 150.501 376.064 59.0007C248.14 1.19807 101.092 16.426 10.1326 35.4818C8.10441 35.9067 6.10415 36.3335 4.13259 36.7614L4.13257 470.491C90.0627 361.572 300.01 461.569 527.642 507.381C766.142 555.381 844.642 367.881 1047.14 459.381C1171.05 515.372 1312.91 502.839 1404.35 484.679V59.0007C1313.9 151.49 1115.82 55.3293 895.564 11.0008Z" fill="url(#paint0_linear)"/>
</mask>
<g mask="url(#mask0)">
<g filter="url(#filter0_d)">
<path d="M895.564 11.0008C657.064 -36.9992 578.564 150.501 376.064 59.0007C248.14 1.19807 101.092 16.426 10.1326 35.4818C8.10441 35.9067 6.10415 36.3335 4.13259 36.7614L4.13257 470.491C90.0627 361.572 300.01 461.569 527.642 507.381C766.142 555.381 844.642 367.881 1047.14 459.381C1171.05 515.372 1312.91 502.839 1404.35 484.679V59.0007C1313.9 151.49 1115.82 55.3293 895.564 11.0008Z" fill="#C4C4C4"/>
<path d="M895.564 11.0008C657.064 -36.9992 578.564 150.501 376.064 59.0007C248.14 1.19807 101.092 16.426 10.1326 35.4818C8.10441 35.9067 6.10415 36.3335 4.13259 36.7614L4.13257 470.491C90.0627 361.572 300.01 461.569 527.642 507.381C766.142 555.381 844.642 367.881 1047.14 459.381C1171.05 515.372 1312.91 502.839 1404.35 484.679V59.0007C1313.9 151.49 1115.82 55.3293 895.564 11.0008Z" fill="url(#paint1_linear)"/>
</g>
<g opacity="0.509882">
<path fill-rule="evenodd" clip-rule="evenodd" d="M846.051 1123.16C769.622 1159.86 717.979 1219.82 635.559 1241.63C553.14 1263.43 440.757 1247.11 349.76 1195.95C258.312 1144.91 188.614 1059.17 65.3216 961.653C-58.3355 863.982 -235.587 754.522 -297.374 638.702C-359.611 523 -306.214 400.403 -216.723 305.722C-127.597 210.891 -2.37829 143.977 138.012 186.397C277.952 228.934 433.257 381.491 576.68 449.415C720.104 517.339 852.01 500.78 955.229 543.336C1058.81 586.043 1133.43 687.447 1157.02 783.273C1180.69 878.831 1152.61 968.511 1087.96 1020.07C1023.59 1072.06 922.565 1086.19 846.051 1123.16Z" fill="url(#paint2_linear)" fill-opacity="0.51" style="mix-blend-mode:overlay"/>
</g>
<g opacity="0.509882">
<path fill-rule="evenodd" clip-rule="evenodd" d="M727.316 -559.501C803.745 -596.203 855.387 -656.162 937.807 -677.965C1020.23 -699.767 1132.61 -683.448 1223.61 -632.287C1315.05 -581.245 1384.75 -495.513 1508.04 -397.992C1631.7 -300.321 1808.95 -190.861 1870.74 -75.0417C1932.98 40.6602 1879.58 163.258 1790.09 257.939C1700.96 352.77 1575.74 419.684 1435.35 377.264C1295.41 334.727 1140.11 182.17 996.686 114.246C853.263 46.3219 721.357 62.8808 618.137 20.3243C514.553 -22.3824 439.934 -123.786 416.346 -219.612C392.672 -315.17 420.758 -404.85 485.409 -456.414C549.78 -508.396 650.801 -522.53 727.316 -559.501Z" fill="url(#paint3_linear)" fill-opacity="0.5" style="mix-blend-mode:overlay"/>
</g>
</g>
<defs>
<filter id="filter0_d" x="0.132568" y="0" width="1408.22" height="520.382" filterUnits="userSpaceOnUse" color-interpolation-filters="sRGB">
<feFlood flood-opacity="0" result="BackgroundImageFix"/>
<feColorMatrix in="SourceAlpha" type="matrix" values="0 0 0 0 0 0 0 0 0 0 0 0 0 0 0 0 0 0 127 0"/>
<feOffset dy="1"/>
<feGaussianBlur stdDeviation="2"/>
<feColorMatrix type="matrix" values="0 0 0 0 0 0 0 0 0 0 0 0 0 0 0 0 0 0 0.177395 0"/>
<feBlend mode="normal" in2="BackgroundImageFix" result="effect1_dropShadow"/>
<feBlend mode="normal" in="SourceGraphic" in2="effect1_dropShadow" result="shape"/>
</filter>
<linearGradient id="paint0_linear" x1="44.9776" y1="88.5906" x2="340.67" y2="904.705" gradientUnits="userSpaceOnUse">
<stop stop-color="#6565D5"/>
<stop offset="1" stop-color="#32337C"/>
</linearGradient>
<linearGradient id="paint1_linear" x1="44.9776" y1="88.5906" x2="340.67" y2="904.705" gradientUnits="userSpaceOnUse">
<stop stop-color="#6565D5"/>
<stop offset="1" stop-color="#32337C"/>
</linearGradient>
<linearGradient id="paint2_linear" x1="-239.867" y1="376" x2="307.001" y2="852.57" gradientUnits="userSpaceOnUse">
<stop stop-color="#94D2F0"/>
<stop offset="1" stop-color="#BCBCBC" stop-opacity="0.01"/>
</linearGradient>
<linearGradient id="paint3_linear" x1="1558.13" y1="400" x2="914.667" y2="-629.771" gradientUnits="userSpaceOnUse">
<stop stop-color="#FFCCE7" stop-opacity="0.51"/>
<stop offset="1" stop-color="#BCBCBC" stop-opacity="0.01"/>
</linearGradient>
</defs>
</svg>
