<svg width="152" height="38" viewBox="0 0 152 38" fill="none" xmlns="http://www.w3.org/2000/svg">
<path fill-rule="evenodd" clip-rule="evenodd" d="M57.7746 11.3255C58.7873 11.3255 59.6914 11.5395 60.4871 11.9675C61.2828 12.3954 61.9036 12.9801 62.3497 13.7215C62.7957 14.463 63.0188 15.2797 63.0188 16.1718C63.0188 17.0639 62.7957 17.8777 62.3497 18.6131C61.9036 19.3485 61.2828 19.9302 60.4871 20.3581C59.6914 20.7861 58.7873 21.0001 57.7746 21.0001H52.5847V26.6963H49.7637V11.3255H57.7746ZM57.3948 18.595C58.2146 18.595 58.8716 18.369 59.3659 17.9169C59.8602 17.4648 60.1073 16.8952 60.1073 16.208C60.1073 15.5208 59.8572 14.9572 59.3569 14.5172C58.8566 14.0772 58.2026 13.8572 57.3948 13.8572H52.5847V18.595H57.3948ZM67.8311 17.7632C68.1324 17.3533 68.5182 17.0338 68.9884 16.8048C69.4586 16.5757 69.9468 16.4612 70.4531 16.4612C70.8871 16.4612 71.2548 16.5214 71.5562 16.642L71.2126 18.9386C70.8751 18.8663 70.5737 18.8301 70.3085 18.8301C68.6568 18.8301 67.8311 19.7644 67.8311 21.633V26.6963H65.1005L65.0824 16.642H67.8311V17.7632ZM75.8441 16.642V26.6963H73.0954V16.642H75.8441ZM74.4698 14.7252C74.0117 14.7252 73.6319 14.5805 73.3305 14.2912C73.0291 14.0018 72.8784 13.6281 72.8784 13.17C72.8784 12.6998 73.0261 12.3201 73.3215 12.0308C73.6168 11.7414 73.9996 11.5968 74.4698 11.5968C74.9279 11.5968 75.3046 11.7414 75.6 12.0308C75.8953 12.3201 76.043 12.6998 76.043 13.17C76.043 13.6281 75.8953 14.0018 75.6 14.2912C75.3046 14.5805 74.9279 14.7252 74.4698 14.7252ZM81.2893 17.6185C81.6148 17.1845 82.0157 16.859 82.4918 16.642C82.968 16.425 83.4774 16.3165 84.0199 16.3165C84.5986 16.3165 85.1411 16.431 85.6474 16.6601C86.1537 16.8891 86.5636 17.2448 86.8771 17.727C87.3111 17.2327 87.8174 16.8741 88.3961 16.651C88.9747 16.428 89.6498 16.3165 90.4214 16.3165C91.0362 16.3165 91.6209 16.4612 92.1755 16.7505C92.73 17.0398 93.1821 17.4979 93.5317 18.1248C93.8813 18.7517 94.0561 19.5353 94.0561 20.4757V26.6963H91.3075V21.0724C91.3075 20.2767 91.1417 19.68 90.8102 19.2822C90.4787 18.8843 90.0296 18.6854 89.463 18.6854C88.9205 18.6854 88.4865 18.8843 88.161 19.2822C87.8355 19.68 87.6727 20.2767 87.6727 21.0724V26.6963H84.9241V21.0724C84.9241 20.2767 84.7583 19.68 84.4268 19.2822C84.0952 18.8843 83.6522 18.6854 83.0976 18.6854C82.5431 18.6854 82.1031 18.8843 81.7776 19.2822C81.4521 19.68 81.2893 20.2767 81.2893 21.0724V26.6963H78.5406V16.642H81.2893V17.6185ZM101.689 24.7614C102.292 24.7614 102.805 24.665 103.227 24.4721C103.648 24.2792 104.04 23.9959 104.402 23.6222L106.12 25.2497C105.047 26.4311 103.57 27.0218 101.689 27.0218C100.604 27.0218 99.643 26.7868 98.8051 26.3166C97.9673 25.8464 97.3193 25.2015 96.8612 24.3817C96.4031 23.5619 96.174 22.6517 96.174 21.6511C96.174 20.6625 96.4031 19.7614 96.8612 18.9476C97.3193 18.1339 97.9462 17.4919 98.7419 17.0218C99.5375 16.5516 100.424 16.3165 101.4 16.3165C102.365 16.3165 103.245 16.5546 104.04 17.0308C104.836 17.507 105.469 18.1851 105.939 19.0652C106.409 19.9452 106.644 20.9639 106.644 22.1213L106.626 22.5914H99.0131C99.1578 23.2183 99.4772 23.7367 99.9715 24.1466C100.466 24.5565 101.038 24.7614 101.689 24.7614ZM101.4 18.5046C100.809 18.5046 100.294 18.7035 99.854 19.1013C99.4139 19.4992 99.1337 20.0176 99.0131 20.6565H103.769C103.673 20.0176 103.404 19.4992 102.964 19.1013C102.524 18.7035 102.003 18.5046 101.4 18.5046ZM111.601 17.7632C111.903 17.3533 112.288 17.0338 112.759 16.8048C113.229 16.5757 113.717 16.4612 114.223 16.4612C114.657 16.4612 115.025 16.5214 115.326 16.642L114.983 18.9386C114.645 18.8663 114.344 18.8301 114.079 18.8301C112.427 18.8301 111.601 19.7644 111.601 21.633V26.6963H108.871L108.853 16.642H111.601V17.7632ZM134.228 15.557C132.781 14.3032 131.22 13.6763 129.544 13.6763C128.544 13.6763 127.63 13.9174 126.805 14.3997C125.979 14.8819 125.331 15.5329 124.861 16.3527C124.39 17.1724 124.155 18.0585 124.155 19.0109C124.155 19.9754 124.39 20.8645 124.861 21.6782C125.331 22.492 125.979 23.1399 126.805 23.6222C127.63 24.1044 128.544 24.3455 129.544 24.3455C130.424 24.3455 131.259 24.1767 132.049 23.8392C132.838 23.5016 133.565 23.0435 134.228 22.4648L134.21 25.6113C132.968 26.5517 131.413 27.0218 129.544 27.0218C128.013 27.0218 126.615 26.6632 125.349 25.9459C124.083 25.2286 123.082 24.2581 122.347 23.0345C121.612 21.8108 121.244 20.4696 121.244 19.0109C121.244 17.5522 121.612 16.211 122.347 14.9874C123.082 13.7637 124.083 12.7933 125.349 12.076C126.615 11.3586 128.013 11 129.544 11C131.401 11 132.986 11.4882 134.3 12.4648L134.228 15.557ZM141.445 16.3165C142.53 16.3165 143.492 16.5486 144.329 17.0127C145.167 17.4769 145.818 18.1158 146.282 18.9295C146.747 19.7433 146.979 20.6565 146.979 21.6692C146.979 22.6818 146.747 23.595 146.282 24.4088C145.818 25.2225 145.167 25.8615 144.329 26.3256C143.492 26.7898 142.53 27.0218 141.445 27.0218C140.372 27.0218 139.417 26.7898 138.579 26.3256C137.741 25.8615 137.09 25.2225 136.626 24.4088C136.162 23.595 135.93 22.6818 135.93 21.6692C135.93 20.6565 136.162 19.7433 136.626 18.9295C137.09 18.1158 137.741 17.4769 138.579 17.0127C139.417 16.5486 140.372 16.3165 141.445 16.3165ZM141.445 24.6529C142 24.6529 142.485 24.5173 142.901 24.246C143.317 23.9748 143.639 23.6131 143.868 23.161C144.097 22.709 144.212 22.2117 144.212 21.6692C144.212 21.1267 144.097 20.6294 143.868 20.1773C143.639 19.7252 143.317 19.3635 142.901 19.0923C142.485 18.821 142 18.6854 141.445 18.6854C140.903 18.6854 140.423 18.821 140.007 19.0923C139.592 19.3635 139.269 19.7252 139.04 20.1773C138.811 20.6294 138.696 21.1267 138.696 21.6692C138.696 22.2117 138.811 22.709 139.04 23.161C139.269 23.6131 139.592 23.9748 140.007 24.246C140.423 24.5173 140.903 24.6529 141.445 24.6529ZM150.254 27.0038C149.784 27.0038 149.383 26.838 149.051 26.5065C148.72 26.1749 148.554 25.7741 148.554 25.3039C148.554 24.8337 148.72 24.4329 149.051 24.1014C149.383 23.7698 149.784 23.6041 150.254 23.6041C150.724 23.6041 151.125 23.7698 151.456 24.1014C151.788 24.4329 151.954 24.8337 151.954 25.3039C151.954 25.7741 151.788 26.1749 151.456 26.5065C151.125 26.838 150.724 27.0038 150.254 27.0038Z" fill="#6565D5"/>
<path fill-rule="evenodd" clip-rule="evenodd" d="M18.9528 37.8762C29.4201 37.8762 37.9056 29.3973 37.9056 18.9381C37.9056 8.47888 29.4201 0 18.9528 0C8.48545 0 0 8.47888 0 18.9381C0 29.3973 8.48545 37.8762 18.9528 37.8762Z" fill="#9393F2"/>
<mask id="mask0" mask-type="alpha" maskUnits="userSpaceOnUse" x="10" y="14" width="1" height="1">
<path fill-rule="evenodd" clip-rule="evenodd" d="M10.6914 14.483H10.9413V14.7258H10.6914V14.483Z" fill="white"/>
</mask>
<g mask="url(#mask0)">
<path fill-rule="evenodd" clip-rule="evenodd" d="M10.6912 14.483V14.5481C10.6912 14.5265 10.6927 14.5046 10.6947 14.483H10.6912Z" fill="#FF93BB"/>
</g>
<mask id="mask1" mask-type="alpha" maskUnits="userSpaceOnUse" x="10" y="14" width="17" height="16">
<path fill-rule="evenodd" clip-rule="evenodd" d="M10.6914 14.5302H26.9634V29.8027H10.6914V14.5302Z" fill="white"/>
</mask>
<g mask="url(#mask1)">
<path fill-rule="evenodd" clip-rule="evenodd" d="M24.2413 16.1085C24.1341 17.8801 23.6343 19.5347 22.8064 20.8282C22.2098 21.7602 21.4837 22.4478 20.6792 22.86C20.4387 23.6545 19.7008 24.2328 18.8275 24.2328C17.759 24.2328 16.8928 23.3673 16.8928 22.2996C16.8928 21.232 17.759 20.3665 18.8275 20.3665C19.3559 20.3665 19.8347 20.5785 20.1838 20.9217C21.2559 20.1345 22.0722 18.4443 22.2895 16.4441C21.239 16.5728 20.0657 16.6449 18.8275 16.6449C14.3342 16.6449 10.6914 15.698 10.6914 14.5302V21.6731C10.6914 26.163 14.3342 29.8027 18.8275 29.8027C23.3209 29.8027 26.9635 26.163 26.9635 21.6731V14.5302C26.9635 15.1577 25.9115 15.7212 24.2413 16.1085Z" fill="#6565D5"/>
</g>
<mask id="mask2" mask-type="alpha" maskUnits="userSpaceOnUse" x="26" y="14" width="1" height="1">
<path fill-rule="evenodd" clip-rule="evenodd" d="M26.9612 14.483H26.9646V14.7258H26.9612V14.483Z" fill="white"/>
</mask>
<g mask="url(#mask2)">
<path fill-rule="evenodd" clip-rule="evenodd" d="M26.9612 14.483C26.9631 14.5046 26.9646 14.5265 26.9646 14.5481V14.483H26.9612Z" fill="#FF93BB"/>
</g>
<mask id="mask3" mask-type="alpha" maskUnits="userSpaceOnUse" x="10" y="12" width="13" height="5">
<path fill-rule="evenodd" clip-rule="evenodd" d="M10.6914 12.4153H22.3475V16.6447H10.6914V12.4153Z" fill="white"/>
</mask>
<g mask="url(#mask3)">
<path fill-rule="evenodd" clip-rule="evenodd" d="M22.3395 15.0074C22.3363 14.9271 22.333 14.847 22.3281 14.7676C22.3268 14.7473 22.3247 14.7272 22.3233 14.7069C22.3177 14.6248 22.3115 14.5428 22.304 14.4618C22.3026 14.4476 22.3006 14.4339 22.2992 14.4199C22.2908 14.3326 22.2813 14.2456 22.2704 14.1597C22.2695 14.1511 22.2681 14.1429 22.2671 14.1344C22.2551 14.0429 22.2423 13.9518 22.2279 13.8617C22.2273 13.8583 22.2266 13.855 22.2261 13.8517C22.211 13.7568 22.1946 13.6625 22.1765 13.5692C22.1398 13.3774 22.0973 13.1895 22.0498 13.006C22.0117 12.8593 21.9704 12.7149 21.9257 12.5742C20.9707 12.4718 19.9245 12.4153 18.8275 12.4153C17.7447 12.4153 16.7117 12.4706 15.7669 12.5702C15.0145 12.6496 14.3183 12.7574 13.6978 12.8886C11.907 13.2673 10.7476 13.8397 10.6936 14.4831C10.6922 14.4987 10.6912 14.5144 10.6912 14.53C10.6912 15.698 14.3339 16.6447 18.8275 16.6447C20.0655 16.6447 21.2388 16.5727 22.2894 16.4441C22.3268 16.0992 22.3474 15.7454 22.3474 15.3848C22.3474 15.2812 22.3458 15.1781 22.3427 15.0753C22.3419 15.0525 22.3404 15.03 22.3395 15.0074Z" fill="#46469E"/>
</g>
<mask id="mask4" mask-type="alpha" maskUnits="userSpaceOnUse" x="23" y="12" width="4" height="5">
<path fill-rule="evenodd" clip-rule="evenodd" d="M23.9956 12.8969H26.9636V16.1084H23.9956V12.8969Z" fill="white"/>
</mask>
<g mask="url(#mask4)">
<path fill-rule="evenodd" clip-rule="evenodd" d="M26.9611 14.4831C26.9075 13.8443 25.7646 13.2754 23.9956 12.8969C24.0436 13.1136 24.086 13.3333 24.1211 13.5564C24.1222 13.5627 24.123 13.569 24.1237 13.5752C24.1441 13.7048 24.1619 13.8355 24.1779 13.967C24.1823 14.0039 24.1861 14.041 24.1902 14.0779C24.2018 14.1808 24.2118 14.2841 24.2206 14.3879C24.2245 14.4328 24.2282 14.4778 24.2315 14.5229C24.2387 14.6243 24.2445 14.7261 24.2493 14.8284C24.2512 14.8707 24.2538 14.913 24.2552 14.9555C24.2605 15.0981 24.2635 15.2411 24.2635 15.385C24.2635 15.6281 24.2558 15.8692 24.2412 16.1084C25.9114 15.7211 26.9636 15.1577 26.9636 14.5301C26.9636 14.5145 26.9625 14.4987 26.9611 14.4831Z" fill="#46469E"/>
</g>
<path fill-rule="evenodd" clip-rule="evenodd" d="M24.2552 14.9556C24.2536 14.9131 24.2512 14.8708 24.2492 14.8283C24.2443 14.726 24.2387 14.6242 24.2313 14.5228C24.2281 14.4777 24.2243 14.4327 24.2206 14.3879C24.2118 14.2841 24.2016 14.1809 24.1902 14.0779C24.1861 14.041 24.1823 14.004 24.1779 13.9671C24.1619 13.8357 24.1441 13.7049 24.1237 13.5753C24.1229 13.5689 24.122 13.5626 24.1209 13.5563C24.0858 13.3334 24.0436 13.1137 23.9954 12.8968C23.981 12.8312 23.9659 12.7661 23.9504 12.7013C23.9476 12.6897 23.9444 12.6781 23.9416 12.6665C23.9103 12.5388 23.8769 12.4125 23.8413 12.2878C23.8376 12.2748 23.8341 12.2618 23.8302 12.249C23.7959 12.1303 23.759 12.0131 23.7207 11.897C23.7163 11.8833 23.7122 11.8691 23.7078 11.8556C23.7075 11.8559 23.7071 11.8561 23.7068 11.8563C23.4744 11.1616 23.1735 10.5158 22.8063 9.94179C22.6609 9.71486 22.5078 9.50287 22.3479 9.30545C22.3477 9.30545 22.3477 9.30527 22.3477 9.30527C22.1064 9.00704 21.8492 8.7427 21.5787 8.51401C21.5773 8.51278 21.5759 8.51173 21.5745 8.5105C21.501 8.4485 21.4263 8.39001 21.351 8.33346C21.2208 8.23563 21.0883 8.14482 20.9531 8.0628C20.9482 8.05981 20.9431 8.05682 20.9381 8.05384C20.8694 8.01274 20.8002 7.97339 20.7302 7.93633C20.7262 7.93423 20.7221 7.9323 20.7181 7.93001C20.5773 7.85607 20.434 7.79073 20.2887 7.73382C20.2813 7.73084 20.2741 7.72803 20.2667 7.72522C20.1976 7.69869 20.128 7.6741 20.0579 7.65145C20.0477 7.64829 20.0378 7.64512 20.0276 7.64179C19.9571 7.61966 19.8863 7.59911 19.8146 7.58102C19.8095 7.57961 19.8042 7.57856 19.7989 7.57715C19.7288 7.55976 19.6583 7.54413 19.5873 7.53061C19.5804 7.5292 19.5738 7.52762 19.5669 7.52639C19.4964 7.51322 19.4252 7.50215 19.3539 7.49302C19.3409 7.49126 19.328 7.48951 19.315 7.48793C19.2447 7.47967 19.1744 7.47282 19.1036 7.46825C19.0918 7.46738 19.08 7.46703 19.0679 7.46632C18.9941 7.46211 18.9197 7.45947 18.8454 7.45947C17.3158 7.45947 15.9092 8.34118 14.8842 9.94179C14.8196 10.0428 14.7579 10.1469 14.6972 10.2523C14.6833 10.2764 14.6693 10.3004 14.6556 10.325C14.6016 10.4209 14.5497 10.5186 14.4991 10.6178C14.4793 10.657 14.4597 10.6967 14.4404 10.7366C14.4068 10.8051 14.3741 10.8748 14.3421 10.9449C14.3065 11.023 14.2718 11.1024 14.2381 11.1823C14.2186 11.228 14.1996 11.2742 14.181 11.3206C14.1332 11.4391 14.0878 11.5594 14.0444 11.6812C14.0416 11.6894 14.0384 11.6977 14.0352 11.7061C14.0294 11.7228 14.0231 11.7393 14.0175 11.7558C14.018 11.756 14.0184 11.7562 14.0189 11.7562C13.8923 12.1208 13.7846 12.4989 13.6978 12.8887C14.3184 12.7575 15.0147 12.6496 15.767 12.5702C15.8257 12.386 15.8897 12.2074 15.9589 12.0345C15.9783 11.9859 15.9981 11.9376 16.0187 11.89C16.0194 11.8879 16.0203 11.8856 16.0212 11.8837C16.0526 11.8102 16.085 11.7382 16.1178 11.6673C16.215 11.4595 16.3196 11.2624 16.4312 11.0777C16.4335 11.0738 16.4358 11.0703 16.4379 11.0664C16.4608 11.029 16.484 10.9919 16.5074 10.9554L16.5186 10.9378C16.5418 10.9018 16.5654 10.8664 16.5891 10.8316C16.5919 10.827 16.5951 10.8228 16.5979 10.8184C16.699 10.6709 16.8044 10.533 16.9143 10.4053C16.9199 10.399 16.9254 10.3923 16.931 10.3858C16.9531 10.3602 16.9758 10.3352 16.9985 10.3106C17.008 10.3001 17.0173 10.2899 17.0268 10.2795C17.048 10.2567 17.0697 10.2344 17.0911 10.2123C17.1024 10.201 17.1134 10.1896 17.1247 10.1786C17.1458 10.1577 17.1669 10.1369 17.188 10.1167C17.1997 10.1055 17.2119 10.0946 17.2238 10.0835C17.2449 10.0639 17.2662 10.0442 17.2876 10.0254C17.2989 10.0156 17.3101 10.0061 17.3216 9.99659C17.362 9.96181 17.4029 9.92862 17.4441 9.89648C17.4578 9.88594 17.4713 9.87487 17.4852 9.86469C17.5038 9.85081 17.5225 9.83746 17.5413 9.82429C17.5583 9.81217 17.5752 9.79987 17.5924 9.78811C17.6105 9.77581 17.629 9.76387 17.6473 9.7521C17.6654 9.74033 17.6835 9.72874 17.7018 9.7175C17.7195 9.70643 17.7374 9.69589 17.7554 9.68536C17.7747 9.67412 17.794 9.66323 17.8135 9.65251C17.8308 9.64303 17.848 9.63354 17.8654 9.62441C17.8867 9.61352 17.9079 9.60298 17.9294 9.59279C17.9452 9.58507 17.9608 9.57716 17.9768 9.56979C18.0058 9.55661 18.0349 9.54414 18.064 9.53237C18.0753 9.52781 18.0862 9.52307 18.0973 9.51885C18.1321 9.50515 18.1672 9.4925 18.2024 9.48056C18.2161 9.47617 18.2298 9.47213 18.2435 9.46791C18.2685 9.46019 18.2938 9.45246 18.3191 9.44561C18.3345 9.44122 18.35 9.43753 18.3655 9.43384C18.3894 9.42787 18.4136 9.42225 18.4376 9.41715C18.4534 9.41382 18.4692 9.41083 18.4852 9.40785C18.5094 9.40328 18.5341 9.39924 18.5588 9.39573C18.5741 9.39344 18.5894 9.39116 18.6047 9.3894C18.6316 9.38589 18.6585 9.38343 18.6854 9.38132C18.6986 9.38027 18.7116 9.37869 18.7246 9.37799C18.7648 9.37535 18.8049 9.37412 18.8454 9.37412C18.8981 9.37412 18.9508 9.37676 19.0032 9.38115C19.0188 9.38238 19.0343 9.38396 19.05 9.38572C19.0892 9.38993 19.1284 9.3952 19.1674 9.4017C19.182 9.40416 19.1967 9.40609 19.2115 9.4089C19.2609 9.41821 19.3103 9.42927 19.3591 9.4421C19.3751 9.44649 19.3908 9.45158 19.4068 9.45615C19.4407 9.46616 19.4748 9.47687 19.5084 9.48846C19.5297 9.49567 19.5507 9.50322 19.5718 9.5113C19.6012 9.52236 19.6304 9.53466 19.6595 9.54713C19.6924 9.56118 19.7251 9.57576 19.7575 9.59157C19.787 9.60562 19.8163 9.62002 19.8457 9.63565C19.8731 9.65023 19.9005 9.66604 19.9278 9.68184C19.9454 9.69203 19.9629 9.70257 19.9805 9.71311C20.0102 9.73137 20.0399 9.74964 20.0691 9.76914C20.0758 9.77353 20.0821 9.77809 20.0888 9.78266C20.1568 9.82885 20.2236 9.87821 20.2897 9.93125C20.2936 9.93424 20.2974 9.93722 20.3013 9.94021C20.3361 9.96849 20.3706 9.99782 20.4048 10.0279C20.4084 10.0312 20.412 10.0342 20.4154 10.0375C20.5226 10.1325 20.6265 10.2367 20.7272 10.3493C21.2254 10.908 21.6407 11.6755 21.9258 12.5743C21.9705 12.715 22.0116 12.8592 22.0498 13.006C22.0974 13.1895 22.1399 13.3775 22.1767 13.5693C22.1944 13.6627 22.2111 13.7567 22.2262 13.8517C22.2268 13.855 22.2275 13.8584 22.228 13.8615C22.2422 13.9518 22.2552 14.0428 22.267 14.1345C22.2681 14.1429 22.2695 14.1512 22.2705 14.1598C22.2814 14.2458 22.2907 14.3326 22.2994 14.4199C22.3009 14.434 22.3027 14.4477 22.3039 14.4617C22.3115 14.5429 22.3178 14.6249 22.3234 14.7069C22.3248 14.7273 22.3266 14.7471 22.328 14.7677C22.3329 14.8471 22.3364 14.9272 22.3396 15.0074C22.3403 15.0301 22.3419 15.0526 22.3426 15.0754C22.3458 15.1781 22.3473 15.2812 22.3473 15.3849C22.3473 15.7455 22.3268 16.0992 22.2893 16.4442C22.0721 18.4442 21.2558 20.1343 20.1837 20.9217C20.5405 21.2723 20.762 21.7601 20.762 22.2996C20.762 22.4946 20.7328 22.6827 20.679 22.8601C21.4834 22.4477 22.2097 21.7601 22.8063 20.8283C23.6342 19.5345 24.1339 17.88 24.2411 16.1083C24.2557 15.8691 24.2635 15.628 24.2635 15.3849C24.2635 15.2412 24.2603 15.0982 24.2552 14.9556Z" fill="#B8B8FF"/>
<path fill-rule="evenodd" clip-rule="evenodd" d="M20.1836 20.9217C19.8345 20.5785 19.3557 20.3665 18.8273 20.3665C17.7588 20.3665 16.8926 21.232 16.8926 22.2995C16.8926 23.3673 17.7588 24.2328 18.8273 24.2328C19.7006 24.2328 20.4385 23.6544 20.679 22.86C20.7328 22.6826 20.7619 22.4945 20.7619 22.2995C20.7619 21.76 20.5405 21.2722 20.1836 20.9217Z" fill="white"/>
</svg>
